<?xml version="1.0" standalone="no"?>
<!DOCTYPE svg PUBLIC "-//W3C//DTD SVG 20010904//EN"
 "http://www.w3.org/TR/2001/REC-SVG-20010904/DTD/svg10.dtd">
<svg version="1.0" xmlns="http://www.w3.org/2000/svg"
 width="840.000000pt" height="765.000000pt" viewBox="0 0 840.000000 765.000000"
 preserveAspectRatio="xMidYMid meet">
<metadata>
Created by potrace 1.15, written by Peter Selinger 2001-2017
</metadata>
<g transform="translate(0.000000,765.000000) scale(0.100000,-0.100000)"
fill="#ffffff" stroke="none">
<path d="M490 7234 c-114 -31 -202 -105 -253 -212 l-32 -67 0 -2355 0 -2355
23 -57 c49 -122 175 -218 308 -238 43 -6 574 -10 1412 -10 l1342 0 0 -435 0
-435 -537 0 c-580 0 -609 -3 -695 -53 -59 -34 -114 -97 -147 -166 -22 -47 -26
-70 -26 -141 0 -72 4 -94 29 -147 35 -76 104 -144 184 -181 l57 -27 2045 0
2045 0 63 29 c163 75 246 257 196 426 -30 101 -100 181 -203 229 l-56 26 -568
3 -567 3 2 437 3 437 1400 5 1400 5 67 33 c82 40 157 119 190 200 l23 57 0
2355 0 2355 -31 65 c-53 111 -141 184 -259 214 -53 14 -441 16 -3710 15 -3180
0 -3657 -2 -3705 -15z m7130 -2634 l0 -2070 -3420 0 -3420 0 0 2070 0 2070
3420 0 3420 0 0 -2070z"/>
<path d="M4515 6075 c-23 -8 -59 -34 -85 -63 -50 -53 -17 40 -342 -967 -55
-170 -196 -609 -314 -973 -230 -712 -233 -725 -195 -807 74 -160 301 -187 406
-49 20 26 49 98 87 214 31 96 174 540 318 985 144 446 304 941 356 1101 104
324 109 355 70 440 -50 109 -182 161 -301 119z"/>
<path d="M3315 5410 c-51 -8 -1288 -582 -1335 -619 -104 -83 -112 -259 -17
-360 36 -37 18 -29 782 -384 572 -265 597 -274 678 -248 142 47 208 206 141
340 -16 30 -42 64 -64 79 -20 15 -208 106 -418 202 -210 96 -382 178 -382 181
0 3 96 50 213 104 485 225 573 268 601 293 92 86 100 237 18 332 -55 65 -132
93 -217 80z"/>
<path d="M4944 5391 c-49 -22 -111 -92 -124 -140 -24 -88 -5 -173 54 -237 33
-35 73 -59 211 -123 366 -169 453 -210 535 -248 l85 -41 -105 -50 c-58 -27
-233 -109 -390 -182 -157 -73 -299 -144 -317 -157 -18 -14 -43 -48 -58 -76
-83 -167 45 -360 229 -345 55 5 33 -5 821 360 504 234 512 238 549 274 98 97
90 282 -15 366 -19 15 -128 70 -244 124 -273 126 -307 141 -650 301 -409 191
-414 193 -482 193 -35 0 -74 -8 -99 -19z"/>
</g>
</svg>
