<svg xmlns="http://www.w3.org/2000/svg" viewBox="0 0 355.39 403.52"><defs><style>.cls-1{fill:#8DBEC6;}</style></defs><title>Asset 1_no</title><g id="Layer_2" data-name="Layer 2"><g id="Layer_1-2" data-name="Layer 1"><g id="layer1"><path id="path3210" class="cls-1" d="M177.7,0a23.63,23.63,0,0,0-23.4,23.4V38.87a23.4,23.4,0,0,0-34.63,30.92l34.63,50.26V161l-35.47-20.48L92.62,85.4A23.39,23.39,0,0,0,48.53,99.94L35.13,92.2a23.4,23.4,0,0,0-23.38,40.54h0l13.4,7.74a23.4,23.4,0,0,0,9.45,45.45l60.84-4.87,35.48,20.45-19,10.94L95.39,222l-60.84-4.86a23.39,23.39,0,0,0-9.46,45.45L11.7,270.31a23.39,23.39,0,0,0,23.39,40.52l13.4-7.74a23.4,23.4,0,0,0,44.13,14.55l26.21-55.13L135.35,253l19-10.93v41L119.72,333.3a23.39,23.39,0,0,0,34.63,30.92v15.42a23.4,23.4,0,1,0,46.79,1c0-.32,0-.65,0-1V364.16a23.4,23.4,0,0,0,34.63-30.92L201.14,283V242l35.46,20.48,26.21,55.13A23.39,23.39,0,0,0,306.9,303l13.4,7.74a23.39,23.39,0,1,0,23.39-40.52h0l-13.39-7.73a23.4,23.4,0,0,0-9.46-45.45L259.92,222l-16.53-9.54-18.94-10.93L259.92,181l60.84,4.87a23.39,23.39,0,0,0,9.45-45.45l13.4-7.74A23.39,23.39,0,1,0,320.22,92.2l-13.4,7.74A23.4,23.4,0,0,0,262.73,85.4l-26.21,55.12L201.06,161V120.05l34.63-50.26a23.39,23.39,0,0,0-34.63-30.92V23.4A23.62,23.62,0,0,0,177.66,0Zm0,12.08A11.28,11.28,0,0,1,189,23.34V76.4l18.13-26.3a11.32,11.32,0,0,1,18.93,12.43c-.09.14-.19.27-.29.41L189,116.29v65.62l56.83-32.81,27.82-58.51a11.32,11.32,0,1,1,20.45,9.72l-13.71,28.84,45.89-26.49A11.32,11.32,0,1,1,338.07,122l-.45.26-45.91,26.48,31.85,2.56a11.32,11.32,0,0,1-1.81,22.56l-64.59-5.12-56.83,32.81,37,21.4,19.78,11.42,64.59-5.16a11.32,11.32,0,1,1,1.8,22.53l-31.83,2.55,45.88,26.45a11.32,11.32,0,0,1-10.87,19.86l-.45-.26-45.89-26.49,13.72,28.89a11.32,11.32,0,0,1-20.45,9.73L245.84,254,189,221.14v65.6l36.77,53.35a11.32,11.32,0,0,1-18.35,13.25c-.1-.13-.2-.27-.29-.41L189,326.63v53a11.32,11.32,0,0,1-22.63,0v-53l-18.13,26.3a11.32,11.32,0,1,1-18.92-12.43l.28-.41,36.77-53.35V221.11l-37.06,21.4-19.78,11.42L81.72,312.45A11.32,11.32,0,1,1,61.15,303l.12-.26L75,273.89l-45.9,26.5a11.34,11.34,0,1,1-11.31-19.65h0l45.89-26.49-31.84-2.51a11.32,11.32,0,0,1,1.23-22.61l.58.05,64.59,5.16L118,222.92l37.06-21.4L98.22,168.74l-64.59,5.17a11.32,11.32,0,0,1-2.39-22.51l.58-.05,31.86-2.61-45.9-26.5a11.32,11.32,0,0,1,11.32-19.6L75,129.14,61.28,100.29a11.32,11.32,0,1,1,20.45-9.72l27.82,58.51,56.84,32.81v-65.6L129.62,62.94A11.32,11.32,0,0,1,148,49.69l.28.41,18.13,26.3v-53a11.3,11.3,0,0,1,11.26-11.32h0Z"/></g></g></g></svg>